<?xml version="1.0" encoding="utf-8"?>
<!-- Generator: Adobe Illustrator 27.8.1, SVG Export Plug-In . SVG Version: 6.00 Build 0)  -->
<svg version="1.1" xmlns="http://www.w3.org/2000/svg" xmlns:xlink="http://www.w3.org/1999/xlink" x="0px" y="0px"
	 viewBox="0 0 1200 800" style="enable-background:new 0 0 1200 800;" xml:space="preserve">
<style type="text/css">
	.st0{fill:url(#SVGID_1_);}
	.st1{clip-path:url(#SVGID_00000094597814586759973980000015095941223953581991_);}
	.st2{fill:url(#SVGID_00000096771431281134005400000015749999915289242046_);}
	.st3{fill:url(#SVGID_00000041264933567476652270000006843427097590852494_);}
	.st4{fill:url(#SVGID_00000060714696504586215140000010106069873588023175_);}
	.st5{fill:url(#SVGID_00000091705766434557694820000014505147433100171909_);}
	.st6{fill:url(#SVGID_00000058590182989877136300000013042404184233934761_);}
	.st7{fill:url(#SVGID_00000092434015012448925860000016612826057007898020_);}
	.st8{fill:url(#SVGID_00000045577732485983593640000013653896636936879254_);}
	.st9{fill:url(#SVGID_00000007391652456516252910000008037987992560042664_);}
	.st10{fill:url(#SVGID_00000052819472983687254780000013162188532853972891_);}
	.st11{fill:url(#SVGID_00000018922655450866384380000013689953073527732102_);}
	.st12{fill:url(#SVGID_00000094612062877079955790000011532069754201926046_);}
	.st13{fill:url(#SVGID_00000080911923113563067420000010183020659742379154_);}
	.st14{fill:url(#SVGID_00000014592364307040723390000009326420514462754205_);}
	.st15{fill:url(#SVGID_00000089569214421529673970000014593268525288070803_);}
	.st16{fill:url(#SVGID_00000026853956733439158440000015342495069852007308_);}
	.st17{fill:url(#SVGID_00000015352289564090383590000016238227166164954250_);}
	.st18{fill:url(#SVGID_00000023263521179772164990000008565672571658562479_);}
	.st19{fill:url(#SVGID_00000035489522009462762720000004009298560540059803_);}
	.st20{fill:url(#SVGID_00000075120196094063684450000013703318039850005420_);}
	.st21{fill:url(#SVGID_00000132777504067984849000000002719109546585425575_);}
	.st22{fill:url(#SVGID_00000115484086088872300650000006296043347738512791_);}
	.st23{fill:url(#SVGID_00000068658167453798380240000012172712417536666018_);}
	.st24{fill:url(#SVGID_00000047021108480068574120000008224911476837151421_);}
	.st25{fill:url(#SVGID_00000134952040788460118090000002927592354940023946_);}
	.st26{fill:url(#SVGID_00000172433861756910548850000002285490480417821825_);}
	.st27{fill:url(#SVGID_00000059309878203535727640000005624744457077314434_);}
	.st28{fill:url(#SVGID_00000030454497140666103330000009894841867811305857_);}
	.st29{fill:url(#SVGID_00000183933690234679548560000001004358203048829837_);}
	.st30{fill:url(#SVGID_00000125561968438481872230000015611094868722165412_);}
	.st31{fill:url(#SVGID_00000117674527859072359900000002259203618769526170_);}
	.st32{fill:url(#SVGID_00000112621700429239833990000001860219500651594372_);}
	.st33{fill:url(#SVGID_00000143608958842896863520000002082461682746700705_);}
	.st34{fill:url(#SVGID_00000020369819930884461710000001398490125681373088_);}
	.st35{fill:url(#SVGID_00000069363508810975602790000015393953916244779444_);}
	.st36{fill:url(#SVGID_00000165952617100070680360000002700392228436753337_);}
	.st37{fill:url(#SVGID_00000135686313619193265780000015865590943840390822_);}
	.st38{fill:url(#SVGID_00000183247211290862007420000016325595129482301631_);}
</style>
<g id="Background">
	<linearGradient id="SVGID_1_" gradientUnits="userSpaceOnUse" x1="513.306" y1="890.6898" x2="686.694" y2="-90.6898">
		<stop  offset="3.197300e-04" style="stop-color:#F5F5F5"/>
		<stop  offset="0.9385" style="stop-color:#E8F5FF"/>
	</linearGradient>
	<rect class="st0" width="1200" height="800"/>
</g>
<g id="Graphic_Elements">
	<g>
		<defs>
			<rect id="SVGID_00000128456061135579650840000018276589138002784955_" width="1200" height="800"/>
		</defs>
		<clipPath id="SVGID_00000097466300701663258090000011664562119445513874_">
			<use xlink:href="#SVGID_00000128456061135579650840000018276589138002784955_"  style="overflow:visible;"/>
		</clipPath>
		<g style="clip-path:url(#SVGID_00000097466300701663258090000011664562119445513874_);">
			<g>
				<g>
					<g>
						
							<linearGradient id="SVGID_00000136399282490920425700000006911358556134761382_" gradientUnits="userSpaceOnUse" x1="-12.6289" y1="699.1983" x2="1190.5938" y2="699.1983">
							<stop  offset="0.0614" style="stop-color:#ABE1FF"/>
							<stop  offset="1" style="stop-color:#D7EDFD;stop-opacity:0"/>
						</linearGradient>
						<path style="fill:url(#SVGID_00000136399282490920425700000006911358556134761382_);" d="M1189.88,754.23
							c-0.22-0.23-22.47-22.85-66.85-47.27c-40.97-22.53-109.71-51.24-204.55-60.03c-104.27-9.67-184.31,22.18-261.7,52.99
							c-58.31,23.21-118.61,47.2-187.74,52.14c-116.73,8.33-212.01-16.07-281.59-33.9c-25.66-6.57-47.83-12.25-66.15-15.01
							c-64.31-9.68-132.97,8.33-133.66,8.51l-0.26-0.97c0.69-0.18,69.54-18.24,134.06-8.53c18.38,2.77,40.56,8.45,66.25,15.03
							c69.51,17.81,164.71,42.19,281.27,33.87c68.98-4.93,129.2-28.89,187.44-52.07c77.51-30.85,157.64-62.74,262.17-53.05
							c95.03,8.81,163.92,37.58,204.98,60.17c44.5,24.49,66.83,47.2,67.05,47.42L1189.88,754.23z"/>
					</g>
					<g>
						
							<linearGradient id="SVGID_00000119097389725354447540000013750971330121284006_" gradientUnits="userSpaceOnUse" x1="-10.4722" y1="722.2527" x2="1193.0479" y2="722.2527">
							<stop  offset="0.0614" style="stop-color:#ABE1FF"/>
							<stop  offset="1" style="stop-color:#D7EDFD;stop-opacity:0"/>
						</linearGradient>
						<path style="fill:url(#SVGID_00000119097389725354447540000013750971330121284006_);" d="M1192.37,775.17
							c-3.91-3.6-97.68-88.46-273.21-103.49c-28.2-2.31-56.26-1.62-83.4,2.04c-59,7.97-113.14,27.14-165.49,45.67
							c-63.58,22.51-129.33,45.79-202.03,47.63c-23.62,0.59-48.03-0.46-74.62-3.24c-69.95-7.29-132.38-23.08-182.53-35.76
							c-34.04-8.61-63.44-16.04-87.78-19.14c-60.23-7.67-126.42,7.87-133.37,10.97l-0.41-0.91c6.99-3.12,73.47-18.75,133.9-11.05
							c24.4,3.11,53.83,10.55,87.9,19.17c50.13,12.68,112.51,28.45,182.39,35.74c26.55,2.77,50.92,3.82,74.49,3.23
							c72.54-1.83,135.29-24.05,201.72-47.57c52.41-18.55,106.6-37.74,165.69-45.72c27.21-3.68,55.34-4.36,83.62-2.05
							c175.87,15.06,269.89,100.14,273.8,103.76L1192.37,775.17z"/>
					</g>
					<g>
						
							<linearGradient id="SVGID_00000026150937218911465090000017489541121100098748_" gradientUnits="userSpaceOnUse" x1="-8.2407" y1="745.2381" x2="1195.5215" y2="745.2381">
							<stop  offset="0.0614" style="stop-color:#ABE1FF"/>
							<stop  offset="1" style="stop-color:#D7EDFD;stop-opacity:0"/>
						</linearGradient>
						<path style="fill:url(#SVGID_00000026150937218911465090000017489541121100098748_);" d="M1194.84,796.09
							c-0.93-0.86-101.07-86.69-275-99.67c-28.18-2.1-56.22-1-83.36,3.29c-51.25,8.09-100.79,23.72-148.69,38.83
							c-67.83,21.4-137.9,43.51-212.24,43.51c-2.7,0-5.4-0.03-8.12-0.09c-22.75-0.5-46.81-2.97-73.55-7.56
							c-54.82-9.41-105.48-22.55-150.17-34.15c-45.89-11.91-85.51-22.19-118.41-25.67c-61.56-6.51-124.34,9.53-133.15,13.46
							l-0.41-0.91c8.85-3.95,71.91-20.08,133.66-13.54c32.97,3.49,72.63,13.78,118.55,25.7c44.67,11.59,95.31,24.73,150.08,34.13
							c26.69,4.58,50.7,7.05,73.41,7.55c77.2,1.71,149.81-21.22,220.03-43.37c47.94-15.12,97.5-30.76,148.83-38.87
							c27.22-4.3,55.34-5.41,83.59-3.3c174.26,13.01,274.67,99.07,275.6,99.93L1194.84,796.09z"/>
					</g>
					<g>
						
							<linearGradient id="SVGID_00000030445243720167677610000008132177227999619980_" gradientUnits="userSpaceOnUse" x1="-6.0098" y1="767.64" x2="1197.9961" y2="767.64">
							<stop  offset="0.0614" style="stop-color:#ABE1FF"/>
							<stop  offset="1" style="stop-color:#D7EDFD;stop-opacity:0"/>
						</linearGradient>
						<path style="fill:url(#SVGID_00000030445243720167677610000008132177227999619980_);" d="M1197.32,817.01
							c-3.52-3.25-31.67-24.42-80.46-46.54c-42.88-19.45-111.74-43.79-196.33-49.3c-28.49-1.86-56.52-0.33-83.32,4.54
							c-42.29,7.68-85.08,19.81-126.46,31.54c-78.96,22.38-160.6,45.52-244.1,39.67c-22.81-1.6-45.84-5.38-72.49-11.89
							c-36.21-8.85-70.61-18.51-103.88-27.86c-63.03-17.7-117.46-32.99-162.95-36.87C70.02,715.41,9.01,729.73-5.6,736.25
							l-0.41-0.91c15.18-6.77,75.13-21.01,133.43-16.03c45.58,3.89,100.06,19.19,163.14,36.91c33.26,9.34,67.66,19,103.85,27.85
							c26.59,6.5,49.57,10.27,72.32,11.86c83.33,5.85,164.89-17.27,243.76-39.63c41.4-11.74,84.22-23.87,126.55-31.57
							c26.87-4.88,54.99-6.41,83.56-4.55c84.74,5.52,153.72,29.91,196.68,49.39c48.91,22.18,77.18,43.45,80.72,46.72L1197.32,817.01
							z"/>
					</g>
					<g>
						
							<linearGradient id="SVGID_00000060727558849668158820000005062323138513012635_" gradientUnits="userSpaceOnUse" x1="-3.7783" y1="781.1762" x2="1200.4697" y2="781.1762">
							<stop  offset="0.0614" style="stop-color:#ABE1FF"/>
							<stop  offset="1" style="stop-color:#D7EDFD;stop-opacity:0"/>
						</linearGradient>
						<path style="fill:url(#SVGID_00000060727558849668158820000005062323138513012635_);" d="M1199.79,837.93
							c-5.25-4.84-36.37-25.64-85.01-46.25c-43.43-18.4-112.27-41.28-193.57-45.78c-28.92-1.6-56.94,0.35-83.28,5.79
							c-31.56,6.52-63.17,14.73-96.63,23.42c-90.3,23.46-183.67,47.71-275.45,36.74c-22.67-2.71-46.03-8.01-71.42-16.22
							c-11.93-3.85-23.77-7.73-35.5-11.56c-84.65-27.68-164.61-53.82-229.59-58.07C73.04,722.32,15.12,736.2-3.37,744.45l-0.41-0.91
							c22.33-9.96,81.04-21.94,133.19-18.53c65.1,4.27,145.12,30.42,229.84,58.12c11.73,3.83,23.57,7.71,35.49,11.56
							c25.33,8.18,48.63,13.48,71.23,16.18c91.61,10.94,184.88-13.29,275.09-36.72c33.47-8.7,65.09-16.91,96.68-23.43
							c26.42-5.46,54.53-7.42,83.53-5.81c81.45,4.51,150.4,27.42,193.9,45.86c48.76,20.66,80.01,41.56,85.29,46.43L1199.79,837.93z"
							/>
					</g>
					<g>
						
							<linearGradient id="SVGID_00000124163651186060573810000005688267846618500795_" gradientUnits="userSpaceOnUse" x1="-1.5469" y1="794.6375" x2="1202.9434" y2="794.6375">
							<stop  offset="0.0614" style="stop-color:#ABE1FF"/>
							<stop  offset="1" style="stop-color:#D7EDFD;stop-opacity:0"/>
						</linearGradient>
						<path style="fill:url(#SVGID_00000124163651186060573810000005688267846618500795_);" d="M1202.27,858.86
							c-6.75-6.23-40.99-26.74-89.56-45.91c-43.94-17.35-112.7-38.77-190.8-42.29c-29.45-1.32-57.45,1.04-83.24,7.04
							c-17.88,4.16-36,8.66-55.19,13.42c-100.67,24.99-214.77,53.32-318.41,35.7c-23.16-3.94-46.17-10.66-70.36-20.55
							c-89.28-36.52-182.97-70.83-263.34-74.54c-50.38-2.32-105.87,9.05-132.5,20.93l-0.41-0.91
							c26.73-11.93,82.42-23.35,132.96-21.02c80.53,3.71,174.32,38.05,263.68,74.61c24.11,9.87,47.06,16.57,70.14,20.49
							c103.44,17.58,217.43-10.72,318.01-35.68c19.19-4.76,37.32-9.26,55.21-13.43c25.87-6.02,53.97-8.4,83.51-7.06
							c78.24,3.53,147.12,24.98,191.13,42.36c48.69,19.22,83.07,39.84,89.87,46.11L1202.27,858.86z"/>
					</g>
					<g>
						
							<linearGradient id="SVGID_00000069357443671083732210000000737364033858882454_" gradientUnits="userSpaceOnUse" x1="0.6846" y1="808.0535" x2="1205.417" y2="808.0535">
							<stop  offset="0.0614" style="stop-color:#ABE1FF"/>
							<stop  offset="1" style="stop-color:#D7EDFD;stop-opacity:0"/>
						</linearGradient>
						<path style="fill:url(#SVGID_00000069357443671083732210000000737364033858882454_);" d="M1204.74,879.78
							c-6.91-6.38-41.61-26.29-94.11-45.55c-44.39-16.29-113.05-36.25-188.04-38.82c-30.07-1.03-58.06,1.75-83.19,8.29
							c-76.26,19.82-182.17,47.34-282.81,47.34c-31.66,0-62.79-2.72-92.32-9.27c-23.52-5.21-46.84-13.59-69.29-24.88
							c-100.88-50.76-188.89-77.49-261.6-79.44C81.37,736.05,29.47,748.2,1.09,760.86l-0.41-0.91
							c28.48-12.71,80.57-24.9,132.72-23.51c72.86,1.95,161.01,28.71,262.02,79.54c22.38,11.26,45.61,19.61,69.06,24.8
							c123.15,27.29,274.51-12.04,374.66-38.07c25.22-6.55,53.3-9.35,83.48-8.32c75.12,2.58,143.89,22.57,188.35,38.88
							c52.63,19.31,87.48,39.33,94.44,45.76L1204.74,879.78z"/>
					</g>
					<g>
						
							<linearGradient id="SVGID_00000125568630786544775070000008282574572228350103_" gradientUnits="userSpaceOnUse" x1="2.9155" y1="821.4207" x2="1207.8916" y2="821.4207">
							<stop  offset="0.0614" style="stop-color:#ABE1FF"/>
							<stop  offset="1" style="stop-color:#D7EDFD;stop-opacity:0"/>
						</linearGradient>
						<path style="fill:url(#SVGID_00000125568630786544775070000008282574572228350103_);" d="M1207.21,900.7
							c-8.04-7.42-44.95-26.9-98.66-45.16c-44.79-15.23-113.3-33.73-185.27-35.39c-30.8-0.71-58.77,2.5-83.15,9.53
							c-63.26,18.25-126.66,31.08-183.33,37.1c-74.94,7.96-139.98,4.57-193.32-10.08c-24.33-6.68-47.29-16.51-68.22-29.22
							c-62.72-38.07-158.72-83.61-259.86-84.33c-44.93-0.32-95.52,9.61-132.07,25.91l-0.41-0.91c36.67-16.36,87.44-26.34,132.48-26
							c101.37,0.73,197.54,46.34,260.37,84.48c20.86,12.66,43.72,22.45,67.97,29.11c53.22,14.61,118.14,17.99,192.95,10.05
							c56.61-6.01,119.95-18.83,183.16-37.07c24.48-7.06,52.56-10.28,83.45-9.57c72.1,1.66,140.71,20.19,185.57,35.44
							c54.44,18.51,90.68,37.68,99.02,45.38L1207.21,900.7z"/>
					</g>
					<g>
						
							<linearGradient id="SVGID_00000098195403256991840910000014238880325208021162_" gradientUnits="userSpaceOnUse" x1="5.147" y1="834.7288" x2="1210.3652" y2="834.7288">
							<stop  offset="0.0614" style="stop-color:#ABE1FF"/>
							<stop  offset="1" style="stop-color:#D7EDFD;stop-opacity:0"/>
						</linearGradient>
						<path style="fill:url(#SVGID_00000098195403256991840910000014238880325208021162_);" d="M1209.69,921.62
							c-20.74-19.14-161.23-75.36-285.72-76.73c-31.59-0.34-59.57,3.28-83.11,10.78c-55.79,17.78-120.88,30-183.3,34.41
							c-74.77,5.28-142.16-1.1-194.87-18.43c-25.21-8.29-47.8-19.58-67.16-33.56c-79.83-57.65-169.78-89.26-253.8-89.26
							c-1.44,0-2.88,0.01-4.32,0.03c-45.29,0.59-92.11,10.67-131.85,28.4l-0.41-0.91c39.86-17.78,86.83-27.9,132.25-28.49
							c85.46-1.09,177.34,30.65,258.72,89.42c19.27,13.92,41.77,25.16,66.88,33.42c111.34,36.61,269.85,18.35,377.56-15.98
							c23.64-7.54,51.7-11.19,83.42-10.83c124.73,1.38,265.58,57.79,286.39,77L1209.69,921.62z"/>
					</g>
					<g>
						
							<linearGradient id="SVGID_00000046338685331465567030000014204956752543903631_" gradientUnits="userSpaceOnUse" x1="7.3784" y1="847.9645" x2="1212.8389" y2="847.9645">
							<stop  offset="0.0614" style="stop-color:#ABE1FF"/>
							<stop  offset="1" style="stop-color:#D7EDFD;stop-opacity:0"/>
						</linearGradient>
						<path style="fill:url(#SVGID_00000046338685331465567030000014204956752543903631_);" d="M1212.16,942.54
							c-14.48-13.37-78.92-38.94-151.75-55.7c-52.68-12.12-151.16-28.91-218.82-5.18C779,903.61,691.43,915.81,613.03,913.5
							c-44.56-1.32-85.19-7.01-120.75-16.92c-39.66-11.05-72.12-27.16-96.47-47.89c-53.14-45.22-115.14-75.66-179.31-88.02
							c-34.1-6.57-68.66-8-102.72-4.26c-35.99,3.96-71.65,13.73-105.99,29.05l-0.41-0.91c34.44-15.36,70.2-25.17,106.29-29.13
							c34.16-3.75,68.82-2.32,103.01,4.27c64.34,12.39,126.5,42.91,179.77,88.24c24.24,20.63,56.57,36.67,96.09,47.68
							c35.49,9.89,76.04,15.57,120.52,16.88c78.27,2.31,165.72-9.87,228.2-31.78c67.9-23.81,166.59-6.99,219.38,5.15
							c72.99,16.79,137.63,42.48,152.21,55.94L1212.16,942.54z"/>
					</g>
				</g>
				
					<linearGradient id="SVGID_00000122713730397121074770000015551793854983491493_" gradientUnits="userSpaceOnUse" x1="593.7795" y1="952.5397" x2="593.7795" y2="724.4051">
					<stop  offset="0.061" style="stop-color:#004BBA"/>
					<stop  offset="1" style="stop-color:#D7EDFD;stop-opacity:0"/>
				</linearGradient>
				<path style="fill:url(#SVGID_00000122713730397121074770000015551793854983491493_);" d="M1196.24,909.58
					c-136.69-126.18-389.17-43.32-545.46-36.04c-242.54,11.3-417.1-229.25-659.46-121.13v200.12h1204.92V909.58z"/>
				
					<linearGradient id="SVGID_00000039827399834023668790000014046404310212560573_" gradientUnits="userSpaceOnUse" x1="418.3255" y1="661.5742" x2="1200.4944" y2="661.5742">
					<stop  offset="0" style="stop-color:#D7EDFD;stop-opacity:0"/>
					<stop  offset="0.9385" style="stop-color:#3C90D6"/>
				</linearGradient>
				<path style="fill:url(#SVGID_00000039827399834023668790000014046404310212560573_);" d="M1200.47,872.84
					c-9.12-4.84-18.55-9.09-28.18-12.81c-10.32-3.99-20.86-7.38-31.53-10.29c-11.74-3.2-23.64-5.82-35.61-8
					c-13.26-2.41-26.62-4.29-40.01-5.78c-14.91-1.65-29.86-2.83-44.84-3.66c-16.68-0.93-33.38-1.44-50.09-1.65
					c-18.59-0.24-37.18-0.12-55.76,0.25c-20.63,0.41-41.25,1.12-61.86,2.04c-22.81,1.02-45.6,2.29-68.39,3.73
					c-25.12,1.59-50.23,3.38-75.34,5.3c-23.13,1.77-46.32,2.89-69.52,2.96c-19.19,0.06-38.39-0.58-57.52-2.22
					c-15.6-1.34-31.15-3.34-46.53-6.28c-12.53-2.4-24.95-5.43-37.09-9.34c-9.64-3.1-19.12-6.77-28.24-11.18
					c-7.25-3.51-14.29-7.5-20.91-12.09c-5.09-3.53-9.95-7.42-14.4-11.74c-3.34-3.24-6.45-6.72-9.2-10.47
					c-1.86-2.53-3.56-5.18-4.99-7.97c-0.74-1.45-1.44-2.94-1.96-4.48c-0.07-0.19-0.13-0.39-0.18-0.58c0.85,1.25,1.82,2.43,2.8,3.58
					c2.76,3.24,5.79,6.23,8.97,9.06c5,4.45,10.39,8.45,16.02,12.06c7.63,4.9,15.71,9.09,24.05,12.64
					c10.56,4.5,21.54,7.99,32.71,10.64c14,3.32,28.3,5.32,42.66,6.29c17.64,1.2,35.37,0.86,52.98-0.58
					c21.81-1.79,43.46-5.29,64.83-9.95c26-5.67,51.61-13.08,76.79-21.65c26.11-8.89,51.81-18.99,76.96-30.33
					c22.85-10.3,45.26-21.59,67.16-33.78c20.85-11.6,41.25-24.01,61.18-37.14c18.83-12.41,37.23-25.47,55.18-39.12
					c16.57-12.59,32.76-25.69,48.56-39.24c14.45-12.4,28.57-25.18,42.35-38.32c12.1-11.54,23.93-23.36,35.47-35.45
					c9.83-10.3,19.46-20.8,28.85-31.5c7.42-8.45,14.69-17.02,21.78-25.74c4.98-6.12,9.87-12.3,14.64-18.58
					c2.49-3.28,4.96-6.58,7.35-9.94c0.29-0.41,0.58-0.82,0.87-1.23L1200.47,872.84z"/>
				
					<linearGradient id="SVGID_00000091697650868755670240000014415306417580022169_" gradientUnits="userSpaceOnUse" x1="-8.6795" y1="690.3925" x2="793.0793" y2="690.3925">
					<stop  offset="0.0614" style="stop-color:#ABE1FF"/>
					<stop  offset="1" style="stop-color:#D7EDFD;stop-opacity:0"/>
				</linearGradient>
				<path style="fill:url(#SVGID_00000091697650868755670240000014415306417580022169_);" d="M-8.68,590.76
					c141.36-16.65,283.91,29.35,400.05,107.99c130.08,88.07,277.14,94.52,401.71-9.03c-62.01,105.85-259.61,130.55-359.62,74.63
					c-52.56-29.39-93.89-75.67-145.81-106.42c-89.6-53.07-194-63.95-296.33-57.33V590.76z"/>
			</g>
			<g>
				
					<linearGradient id="SVGID_00000145767092359190829850000000430253925156606910_" gradientUnits="userSpaceOnUse" x1="600" y1="135.7974" x2="600" y2="-39.6697">
					<stop  offset="0" style="stop-color:#D7EDFD;stop-opacity:0"/>
					<stop  offset="0.9389" style="stop-color:#3087CF"/>
				</linearGradient>
				<path style="fill:url(#SVGID_00000145767092359190829850000000430253925156606910_);" d="M-2.3,91.95
					C132.68,35.96,293.41,23.78,435.83,51.5c171.88,33.46,337.95,105.09,516.64,78.46c78.73-11.73,176.18-41.72,249.82,5.83V-39.67
					H-2.3V91.95z"/>
				
					<linearGradient id="SVGID_00000002350784267888764530000003638899933082393019_" gradientUnits="userSpaceOnUse" x1="-9.4763" y1="155.8248" x2="829.9808" y2="155.8248">
					<stop  offset="0.0614" style="stop-color:#ABE1FF"/>
					<stop  offset="1" style="stop-color:#D7EDFD;stop-opacity:0"/>
				</linearGradient>
				<path style="fill:url(#SVGID_00000002350784267888764530000003638899933082393019_);" d="M829.61,135.64
					c-21.8,7.97-45.47,12.94-69.29,16.13c-25.49,3.41-51.49,4.78-77.38,4.37c-24.44-0.39-48.96-2.33-72.78-6.54
					c-29.68-5.24-58.69-12.4-87.43-19.97c-28.8-7.58-57.39-15.61-86.41-22.72c-28.77-7.06-57.99-13.02-87.67-17.51
					c-29.67-4.49-59.74-7.57-89.95-9.01c-30.11-1.44-60.37-1.27-90.42,0.76c-29.48,1.98-58.88,5.67-87.46,11.49
					c-26.27,5.35-52.13,12.83-74.67,24.43c-5.45,2.8-10.69,5.84-15.64,9.12c34.57-4.45,69.66-6.6,104.73-6.56
					c35.09,0.05,70.11,2.34,104.7,6.74c33.9,4.31,67.75,9.61,100.09,18.51c28.66,7.88,55.83,18.42,82.57,29.38
					c26.7,10.94,53.08,22.37,80.55,32.22c26.85,9.63,54.88,17.74,84.19,22.01c26.61,3.87,54,4.65,80.96,2.68
					c27.08-1.98,53.83-6.73,79.16-14.18c25.16-7.4,48.98-17.49,69.97-30.25c9.91-6.03,18.8-12.74,27.58-19.66
					c8.13-6.42,16.89-13.08,22.1-21.13C829.15,142.8,830.72,139.14,829.61,135.64z"/>
				<g>
					<g>
						
							<linearGradient id="SVGID_00000006671503326737092820000001444212154057921719_" gradientUnits="userSpaceOnUse" x1="277.6004" y1="167.2989" x2="1274.4495" y2="167.2989">
							<stop  offset="0" style="stop-color:#D7EDFD;stop-opacity:0"/>
							<stop  offset="0.9382" style="stop-color:#19ADFF"/>
						</linearGradient>
						<path style="fill:url(#SVGID_00000006671503326737092820000001444212154057921719_);" d="M1274.22,355.75
							c-113.96-26.56-222.63-79.08-314.25-151.87c-12.64-10.04-25.18-20.64-37.3-30.89c-23.32-19.71-47.44-40.1-73.23-57.33
							c-45.79-30.59-90.04-45.78-131.52-45.2c-23.86,0.34-47.56,5.97-70.49,11.41c-10.21,2.42-20.76,4.93-31.21,6.94
							c-59.62,11.48-122.92,7.29-183.04-12.11c-60.12-19.4-113.92-53-155.59-97.17l0.73-0.69c41.55,44.05,95.21,77.55,155.17,96.91
							c59.96,19.35,123.08,23.53,182.54,12.08c10.42-2.01,20.97-4.51,31.17-6.93c22.98-5.45,46.74-11.09,70.71-11.44
							c41.7-0.58,86.12,14.66,132.08,45.37c25.84,17.26,49.98,37.66,73.32,57.39c12.12,10.25,24.66,20.84,37.28,30.87
							c91.51,72.7,200.04,125.15,313.86,151.68L1274.22,355.75z"/>
					</g>
					<g>
						
							<linearGradient id="SVGID_00000181086225799693925650000010947758287793807804_" gradientUnits="userSpaceOnUse" x1="278.5736" y1="155.8248" x2="1274.7502" y2="155.8248">
							<stop  offset="0" style="stop-color:#D7EDFD;stop-opacity:0"/>
							<stop  offset="0.9382" style="stop-color:#19ADFF"/>
						</linearGradient>
						<path style="fill:url(#SVGID_00000181086225799693925650000010947758287793807804_);" d="M1274.51,340.04
							c-114.13-28.23-222.76-79.46-314.13-148.15c-12.65-9.51-25.22-19.55-37.38-29.25c-14.6-11.65-29.7-23.7-45.01-34.91
							c-10.32-7.55-19.83-14.07-29.08-19.93c-46-29.14-90.21-43.7-131.45-43.29c-23.58,0.24-47.03,5.39-69.7,10.37
							c-10.36,2.28-21.07,4.63-31.66,6.49c-56.76,9.94-116.85,5.86-173.78-11.79c-30.24-9.37-59.83-22.64-87.96-39.42
							c-28.04-16.74-53.54-36.19-75.79-57.82l0.7-0.72c22.19,21.58,47.63,40.99,75.61,57.68c28.05,16.74,57.57,29.98,87.74,39.33
							c56.77,17.6,116.7,21.67,173.31,11.76c10.57-1.85,21.27-4.2,31.62-6.48c22.72-4.99,46.22-10.15,69.9-10.39
							c41.46-0.42,85.84,14.2,132,43.44c9.27,5.87,18.8,12.4,29.14,19.97c15.33,11.22,30.43,23.28,45.04,34.94
							c12.15,9.7,24.72,19.73,37.36,29.23c91.27,68.61,199.77,119.78,313.77,147.98L1274.51,340.04z"/>
					</g>
					<g>
						
							<linearGradient id="SVGID_00000119814319747624793350000017995906566668527765_" gradientUnits="userSpaceOnUse" x1="279.5486" y1="144.3499" x2="1275.05" y2="144.3499">
							<stop  offset="0" style="stop-color:#D7EDFD;stop-opacity:0"/>
							<stop  offset="0.9382" style="stop-color:#19ADFF"/>
						</linearGradient>
						<path style="fill:url(#SVGID_00000119814319747624793350000017995906566668527765_);" d="M1274.8,324.33
							c-114.58-30.01-223.16-79.96-314-144.44c-12.64-8.98-25.23-18.44-37.4-27.59c-14.85-11.17-30.21-22.71-45.75-33.44
							c-10.38-7.17-19.95-13.36-29.27-18.95c-46.2-27.69-90.4-41.63-131.39-41.38c-23.28,0.13-46.44,4.81-68.84,9.34
							c-10.53,2.13-21.42,4.33-32.18,6.03C559.21,82.85,499.5,78,443.27,59.9c-29.2-9.4-58.61-22.75-87.41-39.69
							c-27.55-16.21-53.94-35.26-76.32-55.09l0.66-0.75c22.33,19.79,48.66,38.8,76.16,54.98c28.73,16.9,58.07,30.23,87.21,39.6
							C499.66,77,559.21,81.84,615.81,72.92c10.74-1.69,21.61-3.89,32.13-6.02c22.45-4.53,45.66-9.22,69.03-9.36
							c41.21-0.26,85.55,13.73,131.91,41.52c9.34,5.59,18.93,11.8,29.33,18.98c15.55,10.74,30.92,22.29,45.78,33.47
							c12.16,9.14,24.74,18.6,37.37,27.57c90.75,64.41,199.22,114.3,313.68,144.29L1274.8,324.33z"/>
					</g>
					<g>
						
							<linearGradient id="SVGID_00000032650952133442639210000015900548491507527344_" gradientUnits="userSpaceOnUse" x1="280.5252" y1="132.8748" x2="1275.3499" y2="132.8748">
							<stop  offset="0" style="stop-color:#D7EDFD;stop-opacity:0"/>
							<stop  offset="0.9382" style="stop-color:#19ADFF"/>
						</linearGradient>
						<path style="fill:url(#SVGID_00000032650952133442639210000015900548491507527344_);" d="M1275.08,308.63
							c-115.42-31.94-223.96-80.61-313.88-140.72c-12.61-8.45-25.18-17.32-37.33-25.91c-15.13-10.68-30.77-21.73-46.56-31.99
							c-10.46-6.79-20.09-12.67-29.46-17.96c-46.4-26.24-90.57-39.49-131.33-39.47c-22.96,0.03-45.81,4.24-67.92,8.31
							c-10.72,1.98-21.81,4.02-32.76,5.56c-56.74,7.94-116.09,2.33-171.61-16.23c-28.04-9.36-57.27-22.81-86.86-39.96
							c-27.28-15.82-53.85-33.92-76.84-52.36l0.63-0.78C304.1-24.47,330.63-6.4,357.87,9.4c29.53,17.12,58.7,30.54,86.67,39.88
							c55.38,18.5,114.56,24.1,171.15,16.18c10.93-1.53,22.01-3.58,32.72-5.55c22.15-4.08,45.04-8.3,68.09-8.33
							c0.09,0,0.18,0,0.27,0c40.84,0,85.1,13.32,131.56,39.6c9.39,5.3,19.04,11.19,29.51,17.99c15.81,10.27,31.46,21.33,46.59,32.01
							c12.15,8.58,24.71,17.45,37.31,25.89c89.83,60.06,198.27,108.67,313.59,140.59L1275.08,308.63z"/>
					</g>
					<g>
						
							<linearGradient id="SVGID_00000079474641969226878160000018054982958346792589_" gradientUnits="userSpaceOnUse" x1="281.5042" y1="121.4" x2="1275.6497" y2="121.4">
							<stop  offset="0" style="stop-color:#D7EDFD;stop-opacity:0"/>
							<stop  offset="0.9382" style="stop-color:#19ADFF"/>
						</linearGradient>
						<path style="fill:url(#SVGID_00000079474641969226878160000018054982958346792589_);" d="M1275.37,292.92
							c-118.52-34.59-224.09-80.69-313.76-137.01c-12.55-7.9-25.08-16.19-37.19-24.2c-15.43-10.21-31.38-20.77-47.46-30.56
							c-10.53-6.41-20.23-11.96-29.65-16.97c-46.61-24.8-90.77-37.43-131.27-37.55c-0.21,0-0.42,0-0.63,0
							c-22.4,0-44.7,3.71-66.27,7.3c-10.95,1.82-22.27,3.71-33.44,5.08c-56.74,6.93-115.71,0.55-170.52-18.44
							c-27.1-9.38-55.33-22.54-86.31-40.23c-26.61-15.2-53.36-32.36-77.36-49.62l0.58-0.81c23.98,17.25,50.7,34.38,77.28,49.57
							c30.93,17.67,59.1,30.8,86.14,40.16c54.67,18.94,113.48,25.3,170.07,18.4c11.15-1.37,22.46-3.25,33.4-5.07
							c21.82-3.63,44.36-7.4,67.07-7.31c40.66,0.12,84.99,12.8,131.74,37.67c9.44,5.02,19.16,10.58,29.7,17
							c16.09,9.81,32.05,20.37,47.49,30.58c12.11,8.01,24.63,16.3,37.17,24.19c89.59,56.27,195.07,102.33,313.5,136.89
							L1275.37,292.92z"/>
					</g>
					<g>
						
							<linearGradient id="SVGID_00000011030366158599442170000015098071046926246294_" gradientUnits="userSpaceOnUse" x1="282.4852" y1="109.9251" x2="1275.9495" y2="109.9251">
							<stop  offset="0" style="stop-color:#D7EDFD;stop-opacity:0"/>
							<stop  offset="0.9382" style="stop-color:#19ADFF"/>
						</linearGradient>
						<path style="fill:url(#SVGID_00000011030366158599442170000015098071046926246294_);" d="M1275.66,277.21
							c-120.92-37.15-226.44-82-313.63-133.29c-12.45-7.35-24.89-15.03-36.93-22.47c-15.77-9.75-32.08-19.82-48.47-29.16
							c-10.6-6.03-20.36-11.26-29.84-15.98c-46.81-23.35-90.95-35.34-131.21-35.64c-22.25-0.18-44.37,3.12-65.79,6.3
							c-11.2,1.66-22.79,3.38-34.21,4.58c-56.74,5.9-115.33-1.24-169.44-20.66c-25.89-9.28-53.14-22.15-85.76-40.5
							c-24.71-13.9-50.91-29.68-77.88-46.89l0.54-0.84c26.96,17.2,53.14,32.97,77.84,46.86c32.57,18.33,59.77,31.17,85.61,40.43
							c53.96,19.37,112.4,26.5,169,20.61c11.4-1.2,22.97-2.91,34.16-4.58c21.46-3.19,43.66-6.49,65.95-6.31
							c40.41,0.3,84.71,12.33,131.65,35.75c9.5,4.73,19.28,9.97,29.89,16.01c16.41,9.35,32.73,19.43,48.5,29.18
							c12.03,7.43,24.47,15.12,36.91,22.46c87.12,51.25,192.57,96.07,313.42,133.2L1275.66,277.21z"/>
					</g>
					<g>
						
							<linearGradient id="SVGID_00000013912241189711751090000016224013512820597419_" gradientUnits="userSpaceOnUse" x1="283.4686" y1="98.4508" x2="1276.2493" y2="98.4508">
							<stop  offset="0" style="stop-color:#D7EDFD;stop-opacity:0"/>
							<stop  offset="0.9382" style="stop-color:#19ADFF"/>
						</linearGradient>
						<path style="fill:url(#SVGID_00000013912241189711751090000016224013512820597419_);" d="M1275.94,261.5
							c-128.45-41.48-228.07-82.65-313.5-129.58c-12.29-6.77-24.6-13.85-36.5-20.69c-16.17-9.3-32.88-18.91-49.66-27.81
							c-10.66-5.65-20.49-10.56-30.03-15c-47.66-22.21-90.56-33.25-131.15-33.73c-21.8-0.27-43.54,2.57-64.56,5.32
							c-11.5,1.5-23.39,3.05-35.1,4.07c-56.74,4.88-114.96-3.03-168.35-22.88C416.07,9.7,386.6-5.86,361.87-19.57
							c-15.79-8.75-31.41-17.6-46.51-26.16c-11.25-6.38-21.87-12.4-31.9-18l0.49-0.87c10.03,5.6,20.65,11.62,31.9,18
							c15.1,8.56,30.71,17.41,46.5,26.15c24.7,13.69,54.13,29.23,85.08,40.71c53.26,19.79,111.32,27.68,167.92,22.82
							c11.69-1.02,23.57-2.57,35.06-4.06c21.06-2.75,42.84-5.58,64.7-5.33c40.73,0.48,83.77,11.55,131.56,33.82
							c9.56,4.45,19.4,9.36,30.08,15.02c16.79,8.91,33.51,18.53,49.69,27.83c11.89,6.84,24.19,13.91,36.48,20.68
							c85.38,46.89,184.94,88.04,313.33,129.5L1275.94,261.5z"/>
					</g>
					<g>
						
							<linearGradient id="SVGID_00000140699132068653520110000004359723622447313551_" gradientUnits="userSpaceOnUse" x1="284.4539" y1="86.9764" x2="1276.55" y2="86.9764">
							<stop  offset="0" style="stop-color:#D7EDFD;stop-opacity:0"/>
							<stop  offset="0.9382" style="stop-color:#19ADFF"/>
						</linearGradient>
						<path style="fill:url(#SVGID_00000140699132068653520110000004359723622447313551_);" d="M1276.23,245.79
							c-98.42-33.35-212.61-74.39-313.38-125.86c-12.07-6.19-24.17-12.64-35.86-18.87c-16.63-8.86-33.82-18.03-51.04-26.5
							c-10.73-5.27-20.61-9.85-30.22-14.01c-47.86-20.75-90.74-31.15-131.09-31.82c-21.34-0.35-42.61,2.04-63.2,4.36
							c-11.84,1.33-24.08,2.71-36.13,3.54c-56.74,3.85-114.58-4.83-167.27-25.09c-29.36-11.27-57.93-26.46-84.67-41.05
							c-29.49-16.08-55.78-30.3-78.92-41.42l0.43-0.9c23.16,11.13,49.47,25.36,78.97,41.45c26.71,14.57,55.24,29.74,84.55,40.99
							c52.55,20.21,110.24,28.87,166.84,25.03c12.03-0.83,24.26-2.2,36.08-3.53c20.62-2.32,41.93-4.72,63.33-4.36
							c40.48,0.66,83.49,11.1,131.47,31.9c9.63,4.16,19.53,8.75,30.27,14.03c17.23,8.48,34.43,17.65,51.07,26.51
							c11.69,6.23,23.79,12.68,35.85,18.86c100.71,51.45,214.86,92.47,313.24,125.81L1276.23,245.79z"/>
					</g>
					<g>
						
							<linearGradient id="SVGID_00000065043272909996891610000009152248049072456615_" gradientUnits="userSpaceOnUse" x1="285.4407" y1="75.5025" x2="1276.8499" y2="75.5025">
							<stop  offset="0" style="stop-color:#D7EDFD;stop-opacity:0"/>
							<stop  offset="0.9382" style="stop-color:#19ADFF"/>
						</linearGradient>
						<path style="fill:url(#SVGID_00000065043272909996891610000009152248049072456615_);" d="M1276.52,230.08l-17.83-6.33
							c-99.48-35.29-202.35-71.79-295.42-115.82c-11.76-5.59-23.56-11.39-34.97-17c-17.18-8.45-34.94-17.18-52.69-25.24
							c-10.79-4.89-20.74-9.15-30.42-13.02c-48.05-19.28-90.91-29.06-131.03-29.9c-20.79-0.44-41.57,1.52-61.66,3.42
							c-12.23,1.16-24.89,2.35-37.33,2.98c-56.75,2.8-114.21-6.64-166.18-27.31c-27.65-10.98-54.47-25.39-80.4-39.32l-3.72-2
							c-21.34-11.45-52.78-27.93-79.43-38.69l0.37-0.93c26.7,10.78,58.18,27.27,79.53,38.74l3.72,2
							c25.91,13.92,52.7,28.31,80.3,39.27c51.84,20.62,109.16,30.04,165.76,27.24c12.42-0.63,25.06-1.82,37.28-2.98
							c20.12-1.9,40.92-3.87,61.77-3.43c40.24,0.84,83.22,10.65,131.38,29.97c9.69,3.88,19.65,8.14,30.46,13.04
							c17.76,8.06,35.53,16.8,52.72,25.25c11.41,5.61,23.2,11.41,34.96,16.99c93.02,44.01,195.87,80.5,295.33,115.78l17.83,6.33
							L1276.52,230.08z"/>
					</g>
					<g>
						
							<linearGradient id="SVGID_00000171721043588037883180000007580746133511884193_" gradientUnits="userSpaceOnUse" x1="286.43" y1="64.0296" x2="1277.1508" y2="64.0296">
							<stop  offset="0" style="stop-color:#D7EDFD;stop-opacity:0"/>
							<stop  offset="0.9382" style="stop-color:#19ADFF"/>
						</linearGradient>
						<path style="fill:url(#SVGID_00000171721043588037883180000007580746133511884193_);" d="M1276.8,214.37
							c-30.31-11.27-61.43-22.47-91.53-33.3c-74.17-26.69-150.86-54.29-221.59-85.13c-11.32-4.96-22.7-10.1-33.71-15.06
							c-17.84-8.05-36.3-16.38-54.7-24.04c-10.85-4.51-20.86-8.45-30.61-12.04c-48.24-17.82-91.08-26.97-130.97-27.99
							c-20.2-0.52-40.39,1.02-59.91,2.52c-12.7,0.97-25.83,1.98-38.74,2.39c-56.75,1.76-113.84-8.46-165.09-29.53
							c-24.03-9.86-47.47-22.36-70.14-34.45c-4.48-2.39-8.95-4.77-13.43-7.14c-32.65-17.25-58.8-29.01-79.95-35.96l0.31-0.95
							c21.2,6.97,47.4,18.75,80.1,36.03c4.48,2.37,8.96,4.75,13.44,7.14c22.65,12.08,46.07,24.56,70.05,34.4
							c51.12,21.02,108.07,31.2,164.68,29.45c12.88-0.41,26-1.41,38.69-2.39c19.55-1.5,39.76-3.04,60.01-2.52
							c40,1.02,82.95,10.2,131.29,28.05c9.76,3.59,19.78,7.53,30.65,12.05c18.42,7.67,36.88,16,54.73,24.05
							c11,4.96,22.38,10.1,33.7,15.06c70.71,30.83,147.38,58.42,221.53,85.11c30.1,10.83,61.22,22.03,91.54,33.3L1276.8,214.37z"/>
					</g>
					<g>
						
							<linearGradient id="SVGID_00000065066404470370672340000009979264462617875081_" gradientUnits="userSpaceOnUse" x1="287.4207" y1="52.5574" x2="1277.4504" y2="52.5574">
							<stop  offset="0" style="stop-color:#D7EDFD;stop-opacity:0"/>
							<stop  offset="0.9382" style="stop-color:#19ADFF"/>
						</linearGradient>
						<path style="fill:url(#SVGID_00000065066404470370672340000009979264462617875081_);" d="M1277.09,198.66
							c-49.02-19.05-99.74-36.96-148.79-54.28c-54.66-19.3-111.18-39.26-164.21-60.44c-10.73-4.31-21.52-8.75-31.96-13.05
							c-18.67-7.68-37.98-15.63-57.2-22.92c-10.92-4.13-21-7.75-30.8-11.05c-48.42-16.35-91.24-24.88-130.92-26.07
							c-19.51-0.59-39.03,0.55-57.9,1.66c-13.25,0.78-26.96,1.58-40.41,1.76c-57.57,0.71-112.75-9.98-164.01-31.75
							c-21.16-8.97-41.9-20.03-61.95-30.72c-6.9-3.68-14.03-7.48-21.07-11.14c-31.89-16.58-58.96-27.76-80.46-33.23l0.25-0.97
							c21.57,5.5,48.71,16.71,80.67,33.32c7.04,3.66,14.18,7.46,21.08,11.14c20.04,10.68,40.75,21.73,61.87,30.68
							C502.42,3.3,557.47,13.97,614.9,13.26c13.43-0.18,27.12-0.98,40.36-1.75c18.9-1.11,38.44-2.25,57.99-1.66
							c39.78,1.2,82.69,9.74,131.21,26.13c9.81,3.3,19.9,6.92,30.83,11.06c19.23,7.29,38.54,15.24,57.22,22.93
							c10.44,4.3,21.23,8.74,31.96,13.05c53,21.18,109.52,41.13,164.17,60.43c49.06,17.32,99.79,35.23,148.82,54.29L1277.09,198.66z
							"/>
					</g>
					<g>
						
							<linearGradient id="SVGID_00000105423678855973917450000011329649393257287610_" gradientUnits="userSpaceOnUse" x1="288.4124" y1="41.0865" x2="1277.7513" y2="41.0865">
							<stop  offset="0" style="stop-color:#D7EDFD;stop-opacity:0"/>
							<stop  offset="0.9382" style="stop-color:#19ADFF"/>
						</linearGradient>
						<path style="fill:url(#SVGID_00000105423678855973917450000011329649393257287610_);" d="M1277.37,182.95
							c-63.9-25.94-130.61-48.46-195.13-70.25c-39.01-13.17-79.35-26.79-117.73-40.76c-9.87-3.61-19.82-7.32-29.44-10.9
							c-19.75-7.36-40.18-14.98-60.47-21.93c-10.97-3.75-21.11-7.05-30.99-10.06C795.02,14.16,752.22,6.26,712.75,4.88
							c-18.71-0.65-37.45,0.11-55.57,0.84c-13.91,0.57-28.3,1.16-42.41,1.07C557.2,6.42,502.38-5,451.85-27.16
							c-18.84-8.24-37.36-18.17-55.28-27.77c-8.89-4.76-18.08-9.69-27.2-14.35c-31.78-16.24-59.02-26.51-80.97-30.51l0.18-0.98
							c22.04,4.02,49.38,14.31,81.24,30.6c9.12,4.66,18.32,9.59,27.21,14.36c17.9,9.59,36.4,19.51,55.21,27.74
							C502.66-5.97,557.34,5.42,614.78,5.8c14.08,0.08,28.46-0.51,42.36-1.07c18.14-0.74,36.9-1.5,55.64-0.84
							c39.56,1.38,82.45,9.29,131.12,24.2c9.89,3.02,20.04,6.31,31.02,10.07c20.3,6.96,40.74,14.58,60.5,21.94
							c9.62,3.59,19.57,7.29,29.43,10.9c38.38,13.96,78.71,27.58,117.71,40.75c64.53,21.79,131.26,44.32,195.19,70.27
							L1277.37,182.95z"/>
					</g>
					<g>
						
							<linearGradient id="SVGID_00000121263295713431086990000014063689911188644265_" gradientUnits="userSpaceOnUse" x1="289.4051" y1="29.6163" x2="1278.0521" y2="29.6163">
							<stop  offset="0" style="stop-color:#D7EDFD;stop-opacity:0"/>
							<stop  offset="0.9382" style="stop-color:#19ADFF"/>
						</linearGradient>
						<path style="fill:url(#SVGID_00000121263295713431086990000014063689911188644265_);" d="M1277.66,167.24
							c-76.01-32.19-156.18-57.51-233.72-82.01c-26.08-8.24-53.05-16.76-79.02-25.29c-8.63-2.85-17.22-5.73-25.78-8.59
							c-21.21-7.1-43.14-14.44-64.88-21.11c-11.03-3.38-21.23-6.34-31.18-9.07c-48.74-13.42-91.53-20.7-130.8-22.25
							c-17.76-0.7-35.57-0.3-52.8,0.1c-14.72,0.34-29.94,0.69-44.84,0.32C557.06-2.13,502.61-14.3,452.81-36.83
							c-16.91-7.64-33.59-16.66-49.72-25.39c-10.51-5.68-21.37-11.56-32.2-17.01c-31.31-15.73-59.49-25.34-81.48-27.79l0.11-0.99
							c22.11,2.46,50.4,12.1,81.82,27.89c10.85,5.45,21.72,11.33,32.23,17.02c16.11,8.72,32.77,17.73,49.66,25.36
							c49.68,22.48,104,34.62,161.45,36.09c14.88,0.37,30.08,0.02,44.79-0.32c17.24-0.4,35.06-0.81,52.86-0.1
							c39.35,1.55,82.21,8.84,131.03,22.28c9.96,2.73,20.17,5.7,31.21,9.08c21.75,6.67,43.69,14.02,64.91,21.12
							c8.56,2.87,17.14,5.74,25.77,8.59c25.96,8.53,52.93,17.05,79,25.28c77.56,24.5,157.76,49.83,233.81,82.04L1277.66,167.24z"/>
					</g>
					<g>
						
							<linearGradient id="SVGID_00000052826828441887229160000005577072051507051963_" gradientUnits="userSpaceOnUse" x1="290.3978" y1="18.1476" x2="1278.3519" y2="18.1476">
							<stop  offset="0" style="stop-color:#D7EDFD;stop-opacity:0"/>
							<stop  offset="0.9382" style="stop-color:#19ADFF"/>
						</linearGradient>
						<path style="fill:url(#SVGID_00000052826828441887229160000005577072051507051963_);" d="M1277.95,151.53
							c-86.01-37.96-177.8-64.52-266.57-90.19c-15.15-4.38-30.81-8.91-46.04-13.39c-6.77-2-13.52-4.01-20.25-6.01
							c-23.28-6.93-47.36-14.1-71.17-20.56c-11.06-2.99-21.32-5.64-31.37-8.09C793.68,1.34,750.91-5.31,711.81-7.04
							c-16.63-0.74-33.33-0.65-49.47-0.56c-15.71,0.09-31.95,0.18-47.83-0.51c-57.6-2.57-111.68-15.49-160.75-38.39
							c-15.3-7.13-30.42-15.41-45.04-23.42c-11.83-6.48-24.06-13.18-36.34-19.24c-21.86-10.79-53.82-23.9-81.99-25.06l0.04-1
							c28.34,1.17,60.45,14.33,82.39,25.17c12.29,6.07,24.54,12.78,36.38,19.26c14.61,8,29.71,16.27,44.98,23.39
							c48.95,22.85,102.91,35.74,160.37,38.3c15.85,0.69,32.08,0.6,47.78,0.51c16.16-0.09,32.86-0.18,49.52,0.56
							c39.17,1.73,82,8.39,130.94,20.36c10.06,2.45,20.33,5.1,31.4,8.09c23.82,6.46,47.9,13.63,71.19,20.57
							c6.73,2,13.47,4.01,20.24,6.01c15.23,4.47,30.89,9,46.04,13.39c88.8,25.69,180.62,52.25,266.69,90.24L1277.95,151.53z"/>
					</g>
					<g>
						
							<linearGradient id="SVGID_00000125583544708658198590000012938676773859554723_" gradientUnits="userSpaceOnUse" x1="291.3626" y1="6.6617" x2="1278.6517" y2="6.6617">
							<stop  offset="0" style="stop-color:#D7EDFD;stop-opacity:0"/>
							<stop  offset="0.9382" style="stop-color:#19ADFF"/>
						</linearGradient>
						<path style="fill:url(#SVGID_00000125583544708658198590000012938676773859554723_);" d="M1278.23,135.82
							c-94.33-43.37-196.33-69.78-294.98-95.33c-5.85-1.52-11.69-3.03-17.5-4.54l-11.19-2.93c-26.52-6.94-53.93-14.13-80.97-20.51
							c-11.09-2.61-21.41-4.94-31.56-7.1C793.06-5.07,750.31-11.1,711.34-13c-15.24-0.75-30.55-0.93-45.36-1.1
							c-16.95-0.19-34.49-0.4-51.6-1.47c-57.61-3.68-111.32-17.34-159.66-40.61c-13.92-6.69-27.71-14.36-41.03-21.77
							c-12.92-7.19-26.29-14.62-39.79-21.17c-21.9-10.63-53.99-23.12-82.5-22.35l-0.03-1c28.7-0.8,60.96,11.77,82.96,22.45
							c13.53,6.57,26.91,14,39.84,21.2c13.32,7.4,27.09,15.06,40.98,21.74c48.22,23.21,101.82,36.85,159.29,40.51
							c17.08,1.07,34.6,1.27,51.54,1.47c14.82,0.17,30.15,0.35,45.4,1.1c39.03,1.91,81.83,7.94,130.85,18.44
							c10.16,2.17,20.49,4.49,31.58,7.1c27.05,6.39,54.48,13.57,81,20.52l11.19,2.93c5.82,1.51,11.65,3.02,17.5,4.54
							c98.69,25.56,200.73,51.99,295.14,95.39L1278.23,135.82z"/>
					</g>
					<g>
						
							<linearGradient id="SVGID_00000026841534723737411780000013525679149182472603_" gradientUnits="userSpaceOnUse" x1="292.2869" y1="-4.9881" x2="1278.9525" y2="-4.9881">
							<stop  offset="0" style="stop-color:#D7EDFD;stop-opacity:0"/>
							<stop  offset="0.9382" style="stop-color:#19ADFF"/>
						</linearGradient>
						<path style="fill:url(#SVGID_00000026841534723737411780000013525679149182472603_);" d="M1278.52,120.11
							c-101.18-48.4-213.37-73.77-312.35-96.16c-33.04-7.52-62.84-14.24-92.92-20.31c-11.1-2.23-21.49-4.23-31.76-6.11
							c-49-9.01-91.73-14.41-130.63-16.5c-13.48-0.73-27.04-1.1-40.17-1.47c-18.56-0.52-37.76-1.05-56.45-2.59
							c-57.62-4.79-110.97-19.2-158.58-42.83c-12.74-6.31-25.36-13.45-37.57-20.35c-13.84-7.82-28.14-15.91-42.71-22.85
							c-21.96-10.47-54.19-22.36-83.01-19.63l-0.09-1c29.05-2.76,61.46,9.2,83.53,19.72c14.6,6.96,28.92,15.05,42.77,22.88
							c12.2,6.9,24.81,14.03,37.53,20.33c47.5,23.57,100.73,37.94,158.22,42.73c18.67,1.54,37.85,2.07,56.4,2.59
							c13.13,0.37,26.7,0.74,40.19,1.47c38.94,2.09,81.71,7.5,130.76,16.52c10.27,1.88,20.66,3.88,31.77,6.11
							c30.09,6.07,59.89,12.79,92.94,20.31c99.03,22.39,211.28,47.78,312.56,96.23L1278.52,120.11z"/>
					</g>
					<g>
						
							<linearGradient id="SVGID_00000032629825114562382070000004481363976759841684_" gradientUnits="userSpaceOnUse" x1="293.2122" y1="-16.7967" x2="1279.2523" y2="-16.7967">
							<stop  offset="0" style="stop-color:#D7EDFD;stop-opacity:0"/>
							<stop  offset="0.9382" style="stop-color:#19ADFF"/>
						</linearGradient>
						<path style="fill:url(#SVGID_00000032629825114562382070000004481363976759841684_);" d="M1278.81,104.4
							c-97.48-48.49-207.69-72.26-312.22-92.44c-25.63-4.98-59.43-11.44-93.67-17.18c-10.91-1.82-21.66-3.55-31.95-5.12
							c-48.89-7.53-91.6-12.3-130.57-14.59c-11.17-0.66-22.45-1.14-33.35-1.62c-20.71-0.9-42.13-1.82-62.93-3.94
							c-57.62-5.92-110.61-21.08-157.49-45.04c-11.71-5.98-23.33-12.67-34.56-19.14c-14.59-8.4-29.69-17.09-45.17-24.34
							c-31.14-14.57-60.8-20.58-83.52-16.92l-0.16-0.99c16.21-2.61,43.96-1.79,84.1,17c15.52,7.27,30.63,15.96,45.24,24.38
							c11.23,6.46,22.83,13.15,34.52,19.11c46.77,23.91,99.64,39.03,157.14,44.94c20.77,2.12,42.17,3.04,62.87,3.94
							c10.91,0.47,22.19,0.96,33.37,1.62c39,2.29,81.74,7.06,130.67,14.6c10.29,1.58,21.05,3.3,31.96,5.13
							c34.25,5.74,68.06,12.2,93.69,17.18c104.6,20.2,214.88,43.98,312.48,92.53L1278.81,104.4z"/>
					</g>
					<g>
						
							<linearGradient id="SVGID_00000147921897299478012500000017245296141474293134_" gradientUnits="userSpaceOnUse" x1="294.1395" y1="-28.7249" x2="1279.5521" y2="-28.7249">
							<stop  offset="0" style="stop-color:#D7EDFD;stop-opacity:0"/>
							<stop  offset="0.9382" style="stop-color:#19ADFF"/>
						</linearGradient>
						<path style="fill:url(#SVGID_00000147921897299478012500000017245296141474293134_);" d="M1279.09,88.69
							C1179.12,37.01,1065.58,15.79,967-0.04c-33.86-5.48-64.75-10.07-94.42-14.05c-10.77-1.44-21.58-2.83-32.14-4.14
							c-48.42-6.02-91.11-10.17-130.51-12.67c-8.02-0.51-16.13-0.97-23.97-1.42c-23.71-1.35-48.23-2.74-71.97-5.63
							C556.34-45,503.72-60.9,457.57-85.2c-10.8-5.68-21.53-11.98-31.91-18.07c-15.23-8.94-30.98-18.19-47.27-25.67
							c-31.25-14.36-61.09-19.4-84.03-14.2l-0.22-0.98c23.15-5.24,53.22-0.17,84.67,14.27c16.34,7.5,32.11,16.76,47.36,25.72
							c10.37,6.09,21.09,12.38,31.87,18.05c46.04,24.25,98.55,40.11,156.06,47.15c23.71,2.89,48.21,4.28,71.91,5.63
							c7.84,0.45,15.96,0.91,23.98,1.42c39.43,2.51,82.14,6.65,130.57,12.68c10.56,1.31,21.38,2.7,32.15,4.14
							c29.68,3.97,60.58,8.57,94.45,14.05c98.65,15.85,212.29,37.09,312.39,88.83L1279.09,88.69z"/>
					</g>
					<g>
						
							<linearGradient id="SVGID_00000062902308511540828320000015982129920986762369_" gradientUnits="userSpaceOnUse" x1="295.0682" y1="-40.7819" x2="1279.8528" y2="-40.7819">
							<stop  offset="0" style="stop-color:#D7EDFD;stop-opacity:0"/>
							<stop  offset="0.9382" style="stop-color:#19ADFF"/>
						</linearGradient>
						<path style="fill:url(#SVGID_00000062902308511540828320000015982129920986762369_);" d="M1279.38,72.98
							c-96.66-51.88-207.06-71.52-311.97-85.02c-30.57-3.96-62.59-7.63-95.17-10.91c-10.43-1.05-21.31-2.11-32.33-3.15
							c-45.53-4.33-89.43-7.94-130.46-10.75c-3.42-0.23-6.83-0.47-10.24-0.7c-28.17-1.9-57.29-3.87-85.36-7.85
							c-57.64-8.2-109.9-24.85-155.32-49.48c-10-5.42-19.95-11.38-29.56-17.14c-15.76-9.44-32.07-19.21-49.07-26.88
							c-31.37-14.14-61.39-18.22-84.55-11.49l-0.28-0.96c23.38-6.79,53.65-2.69,85.24,11.54c17.06,7.69,33.38,17.47,49.17,26.93
							c9.61,5.76,19.54,11.71,29.53,17.12c45.31,24.57,97.46,41.18,154.99,49.36c28.04,3.97,55.85,5.85,85.29,7.84
							c3.41,0.23,6.82,0.46,10.24,0.7c41.04,2.81,84.94,6.43,130.48,10.75c11.02,1.04,21.9,2.1,32.34,3.15
							c32.59,3.28,64.62,6.95,95.2,10.92c105,13.51,215.51,33.17,312.31,85.13L1279.38,72.98z"/>
					</g>
					<g>
						
							<linearGradient id="SVGID_00000108294169918097741320000010157072095195323561_" gradientUnits="userSpaceOnUse" x1="295.9993" y1="-52.9345" x2="1280.1527" y2="-52.9345">
							<stop  offset="0" style="stop-color:#D7EDFD;stop-opacity:0"/>
							<stop  offset="0.9382" style="stop-color:#19ADFF"/>
						</linearGradient>
						<path style="fill:url(#SVGID_00000108294169918097741320000010157072095195323561_);" d="M1279.67,57.27
							c-97.73-54.44-212.48-71.65-311.84-81.31c-28.89-2.83-59.38-5.3-95.92-7.78c-10.78-0.73-21.62-1.45-32.52-2.16l-21.9-1.44
							c-35.54-2.33-72.3-4.74-108.5-7.4c-30.81-2.27-63.55-4.91-95.27-10.04c-57.65-9.36-109.55-26.75-154.23-51.69
							c-9.29-5.18-18.54-10.84-27.48-16.31c-16.21-9.92-32.97-20.18-50.61-27.97c-31.49-13.92-61.7-17.04-85.06-8.78l-0.33-0.94
							c23.6-8.34,54.07-5.21,85.8,8.81c17.7,7.82,34.49,18.1,50.73,28.03c8.93,5.47,18.17,11.12,27.44,16.29
							c44.59,24.89,96.37,42.24,153.91,51.58c31.68,5.13,64.39,7.77,95.18,10.03c36.2,2.66,72.95,5.07,108.49,7.4l21.9,1.44
							c10.9,0.71,21.74,1.43,32.52,2.16c36.56,2.48,67.05,4.96,95.95,7.78c65.65,6.38,115.29,14.03,160.94,24.8
							c57.92,13.66,107.4,32.19,151.28,56.63L1279.67,57.27z"/>
					</g>
					<g>
						
							<linearGradient id="SVGID_00000139255288907752968230000008352905037563940021_" gradientUnits="userSpaceOnUse" x1="296.932" y1="-65.1586" x2="1280.4534" y2="-65.1586">
							<stop  offset="0" style="stop-color:#D7EDFD;stop-opacity:0"/>
							<stop  offset="0.9382" style="stop-color:#19ADFF"/>
						</linearGradient>
						<path style="fill:url(#SVGID_00000139255288907752968230000008352905037563940021_);" d="M1279.95,41.56
							c-98.12-56.69-212.63-71.04-311.71-77.6c-34.45-2.29-68.2-3.64-96.67-4.65l-6.06-0.21c-8.85-0.31-17.74-0.63-26.65-0.96
							c-41.5-1.54-86.02-3.44-130.34-6.92c-38.42-3.02-67.69-6.58-94.93-11.54c-58.47-10.67-108.56-28.3-153.15-53.91
							c-8.65-4.97-17.27-10.36-25.61-15.57c-16.58-10.37-33.73-21.09-51.93-28.98c-42.67-18.49-71.94-11.74-85.58-6.07l-0.38-0.92
							c13.79-5.73,43.35-12.56,86.36,6.08c18.27,7.92,35.45,18.66,52.06,29.05c8.33,5.21,16.94,10.59,25.58,15.55
							c44.48,25.55,94.47,43.14,152.83,53.79c27.2,4.96,56.45,8.51,94.83,11.53c44.31,3.48,88.81,5.38,130.3,6.92
							c8.91,0.33,17.8,0.64,26.65,0.96l6.06,0.21c28.48,1.01,62.24,2.36,96.71,4.65c99.19,6.57,213.85,20.94,312.14,77.73
							L1279.95,41.56z"/>
					</g>
					<g>
						
							<linearGradient id="SVGID_00000133491838518124912880000008624077185621947284_" gradientUnits="userSpaceOnUse" x1="297.867" y1="-77.4643" x2="1280.7532" y2="-77.4643">
							<stop  offset="0" style="stop-color:#D7EDFD;stop-opacity:0"/>
							<stop  offset="0.9382" style="stop-color:#19ADFF"/>
						</linearGradient>
						<path style="fill:url(#SVGID_00000133491838518124912880000008624077185621947284_);" d="M1280.24,25.85
							c-54.16-32.44-118.58-53.56-196.96-64.56c-68.09-9.56-139.16-10.59-212.05-10.85c-76.14-0.28-144.66-1.26-212.19-10.53
							C580.46-70.87,515.8-91.75,461.39-123.9c-8.08-4.78-16.14-9.93-23.93-14.91c-16.89-10.8-34.35-21.97-53.06-29.91
							c-42.85-18.2-72.34-9.92-86.1-3.37l-0.43-0.9c13.91-6.63,43.71-15.01,86.92,3.35c18.79,7.98,36.29,19.17,53.21,29.99
							c7.78,4.98,15.83,10.12,23.9,14.89c54.3,32.08,118.83,52.91,197.28,63.68c67.47,9.26,135.95,10.24,212.06,10.52
							c72.93,0.26,144.03,1.29,212.19,10.86c78.51,11.02,143.05,32.18,197.33,64.69L1280.24,25.85z"/>
					</g>
				</g>
			</g>
		</g>
	</g>
</g>
</svg>
